<svg xmlns="http://www.w3.org/2000/svg" viewBox="0 0 25 25">
  <path d="M6.75097938 20.2227835c.54190722.1909278 1.24592784.3273196 2.0316495.3273196 2.32293812 0 3.74530922-1.1825773 3.74530922-2.8019588 0-1.1969587-.887835-2.0273711-1.9861855-2.2243814v-.0284536c1.1266495-.3944846 1.6758247-1.1543299 1.6758247-2.1257732 0-1.2533505-1.0843299-2.2809279-3.04030926-2.2809279-.80737113 0-1.57407216.1572681-2.15407216.3684021-.39237114.1434021-.60860825.5629897-.49572165.9649485.06195876.2160309.20793814.3968556.4047938.5016494.1980928.1047939.42860826.1246908.64170104.0543815.344433-.1139691.74061856-.1997423 1.1241237-.1997423.90149486 0 1.35175263.4081444 1.35175263.957165 0 .7745876-.91546396 1.042268-1.6335052 1.0560309h-.0635567c-.42329896 0-.7676804.3436082-.7676804.7671134 0 .4237629.34438144.7673711.7676804.7673711h.10556702c.94314433 0 1.84469068.4089691 1.84469068 1.3097938 0 .6895877-.56350512 1.2252578-1.67489687 1.2252578-.44675258 0-.8935567-.0957217-1.2735567-.2156186-.22835052-.0718556-.47603093-.0483505-.68561856.066134-.21051546.115-.36474227.309897-.42737113.5413918-.11041237.4070103.1122165.8302062.50938144.9698969zm8.35938142-6.6831959c.2190722.1069072.4741237.1084536.6935567.0037114l.8397938-.3992784h.0276805v6.2163918c0 .571134.4629896 1.0345876 1.035103 1.0345876.5707732 0 1.0347423-.4634536 1.0347423-1.0345876v-7.6113918c0-.2790206-.2273196-.5057732-.5059278-.5057732h-.9791237c-.1897938 0-.3784021.0414949-.5513918.1219588l-1.5807216.7350515c-.3386598.1575258-.522165.5285052-.4420103.8940207.0527319.2375773.2104639.4385051.4282989.5453092zM8.725 5.9593299c.6579897 0 1.035-.62592784 1.035-1.46268042 0-.7729897-.37015464-1.43706185-1.04185567-1.43706185-.6577835 0-1.04082474.62592783-1.04082474 1.4626804C7.677268 5.36551547 8.0735567 5.9593299 8.725 5.9593299z"/>
  <path d="M22.3882474.00005155H2.56525773C1.14860825.00005155 0 1.14814433 0 2.5647938v19.8239691c0 1.4165979 1.14860825 2.5646907 2.56525773 2.5646907H22.3882474c1.4166495 0 2.5652578-1.1480928 2.5652578-2.5646907V2.5647938c0-1.41664947-1.1486083-2.56474225-2.5652578-2.56474225zm-6.9836082 2.35670103h2.4909794c.2257732 0 .4092783.18329897.4092783.40891752 0 .2256701-.1835051.40881444-.4092783.40881444h-.7664949V6.1734536c0 .26994846-.2184536.4886598-.4881959.4886598-.2702062 0-.4891752-.21871134-.4891752-.4886598V3.17448455h-.7471134c-.2253093 0-.4088145-.18314433-.4088145-.40881444 0-.2256185.1834537-.4089175.4088145-.4089175zm-1.8225258-.0701031c.2553093 0 .4786082.02613403.6608763.06329897.1067526.0222165.1998969.0871134.2585051.17979382.0574227.09262886.0747939.205.0478866.31108247l-.0068041.0284536c-.0506185.19561857-.2470103.31603094-.4442268.27268042-.1387629-.03051546-.2958763-.0504639-.4720618-.0504639-.7726289 0-1.3728866.46618555-1.3728866 1.4242268 0 .86247422.511134 1.405567 1.38 1.405567.1527319 0 .3152061-.01747423.4610824-.045.197165-.03675258.3857732.09216495.4243815.2884536l.0051546.02649485c.0409794.2153093-.0987113.4240722-.3135051.4674227-.1959794.03969077-.4425258.0674227-.7239691.0674227-1.4885052 0-2.2554124-.926134-2.2554124-2.1525773 0-1.4693299 1.0476804-2.28685567 2.3509794-2.28685567zm-4.83757732 0c1.32190722 0 2.04340202.9902062 2.04340202 2.17819588 0 1.4114433-.85567006 2.26747423-2.11396903 2.26747423-1.27762886 0-2.02530928-.9646392-2.02530928-2.1909794-.0000516-1.2902062.8243814-2.25469077 2.09587623-2.25469077zM22.4581959 22.3887629c0 .0381443-.0308248.0694845-.0699485.0694845H2.56525773c-.03907216 0-.06994845-.0313402-.06994845-.0694845V9.14963918H22.4581959V22.3887629z"/>
</svg>
