<svg xmlns="http://www.w3.org/2000/svg" viewBox="0 0 25 25">
  <path d="M3.52047598 11.3936277l6.17337107 6.1243235 6.17337105-6.1243235c.347973-.3446589.9120205-.3446589 1.2593306 0 .3492985.3459845.3492985.9047296 0 1.2500513l-6.80171075 6.7473607c-.34863573.3459846-.91334607.3459846-1.2606562 0L2.2611454 12.643679c-.34797293-.3446589-.34797293-.9034039 0-1.2487256.17232944-.1723295.40033456-.2584942.6296653-.2584942.2273423 0 .4553474.0861647.62966528.2584942v-.0013257zm0-2.37148102l6.17337107-6.12432346 6.17337105 6.12432346c.347973.3446589.9120205.3446589 1.2593306 0 .3492985-.3459845.3492985-.9047296 0-1.2500513l-6.80171075-6.7473607c-.34863573-.3459845-.91334607-.3459845-1.2606562 0L2.2611454 7.77209538c-.34797293.3446589-.34797293.903404 0 1.2487257.17232944.17232944.40033456.25849416.6296653.25849416.2273423 0 .4553474-.08616472.62966528-.25849417v.0013256z"/>
</svg>
