<svg xmlns="http://www.w3.org/2000/svg" viewBox="0 0 25 25">
  <path d="M3.3899339 3.2945l9.2364186 9.313-9.2364186 9.314c-.519911.525-.519911 1.376 0 1.902.519911.523 1.3637665.523 1.8846773 0l10.180257-10.266c.519911-.526.519911-1.377 0-1.902L5.2746112 1.3945c-.5199109-.526-1.3637665-.526-1.8846773 0-.2599555.26-.3899332.604-.3899332.95 0 .343.1299777.687.3899332.95zm17.6023703 9.313375l-.03228107 10.2751907c-.00430504.7395707.59231545 1.3362667 1.33249954 1.3326681.36761755-.0000315.70272804-.1513681.94735604-.396027.24250697-.2425376.3938244-.5776905.39597694-.9474759L23.69 12.607875l.02997684-10.2751907c.0043056-.73957075-.59239037-1.3362667-1.3326681-1.3326681-.36766406.00003146-.70281694.15136805-.94747588.396027-.24253763.24253762-.39387422.5776905-.396027.94747588L20.9923042 12.607875z"/>
</svg>
