<svg xmlns="http://www.w3.org/2000/svg" viewBox="0 0 25 25">
  <path d="M12.5 0C19.404 0 25 5.597 25 12.5S19.404 25 12.5 25 0 19.404 0 12.5 5.596 0 12.5 0zm6.4318036 11.4256331h-5.3588079V6.07231008C13.5729957 5.47993418 13.0930615 5 12.5034281 5c-.5896334 0-1.0695676.47993418-1.0695676 1.07231008v5.35743672H6.07231008c-.58963342 0-1.0695676.4799342-1.0695676 1.0695676 0 .5896334.47993418 1.0695676 1.0695676 1.0695676h5.35743672v5.3615504c0 .5896334.4799342 1.0695676 1.0695676 1.0695676.5896334 0 1.0695676-.4799342 1.0695676-1.0695676V13.568882h5.3588079c.5896334 0 1.0695676-.4799342 1.0695676-1.0695676 0-.5896334-.4799342-1.0695676-1.0695676-1.0695676l.0041137-.0041137z"/>
</svg>
