<svg xmlns="http://www.w3.org/2000/svg" viewBox="0 0 25 25">
  <path d="M21.7671393 4.93514583c.4694366-.46943654.4694366-1.2328481 0-1.70228464-.4694365-.46943658-1.2313089-.46943658-1.7007455 0l-7.56639353 7.5648544-7.56485444-7.5633153c-.47097568-.46943655-1.23130896-.46943655-1.70228464 0-.46943658.46943654-.46943658 1.23130896 0 1.7007455l7.56639353 7.56485444L3.2328612 20.0648547c-.46943655.4694365-.46943655 1.231309 0 1.7007455.23471826.2354878.54331507.3540013.85037274.3540013.30782724 0 .61565448-.1185135.85114232-.3540013l7.56485444-7.5648544 7.5648544 7.5648544c.2347183.2354878.5425455.3540013.8503728.3540013.3078272 0 .6156545-.1185135.8503727-.3540013.4694366-.4694365.4694366-1.231309 0-1.7007455l-7.5648544-7.56485443 7.5648544-7.56485444h.0023087z"/>
</svg>
