<svg xmlns="http://www.w3.org/2000/svg" viewBox="0 0 25 25">
  <path d="M24.499937 9.49989772c0 .55200048-.4499949.99998168-.9999816.99998168-.5499868 0-.9999817-.4479812-.9999817-.99998168V3.91394525l-6.2919995 6.29395035c-.3859976.3900248-1.02402.3900248-1.413982 0-.3859976-.3900249-.3859976-1.02402006 0-1.41398202l6.2919996-6.2939503h-5.5859526c-.5499866 0-.9999815-.4479812-.9999815-.99998163C14.5000577.9479812 14.9500526.5 15.5000392.5h7.9999791l.3819703.07803016c.2420193.10200554.4399894.29601117.5399811.53998127L24.5 1.49998165v7.99991607h-.000063zM9.49996064 24.4998741h-7.999979l-.3819702-.0780301-.31602215-.2099892-.0079918-.0040275-.0079918-.0120191-.20797556-.3160222L.5 23.5037939v-8.0038804c0-.5499869.4479812-.9999818.99998165-.9999818.55200043 0 .99998163.4499949.99998163.9999818v5.5859524l6.29199954-6.2919995c.390025-.3859976 1.02402-.3859976 1.41398198 0 .3900249.3900249.3900249 1.0279843 0 1.4139819l-6.29199955 6.2919996H9.4998978c.5520003 0 .9999816.4499949.9999816.9999816.000063.5500497-.4479183 1.0000446-.99991876 1.0000446z"/>
</svg>
