<svg xmlns="http://www.w3.org/2000/svg" viewBox="0 0 25 25">
  <path d="M19.563,0 L11.585,0 C10.795,0 10.155,0.642 10.155,1.43 C10.155,2.22 10.795,2.86 11.585,2.86 L16.111,2.86 L8.561,10.41 C8.291,10.68 8.145,11.04 8.145,11.42 C8.145,11.803 8.295,12.162 8.565,12.432 C8.835,12.702 9.193,12.852 9.575,12.852 C9.957,12.852 10.315,12.702 10.587,12.432 L18.137,4.882 L18.137,9.409 C18.137,10.194 18.777,10.839 19.567,10.839 C20.355,10.839 20.997,10.194 20.997,9.409 L20.997,1.43 C20.997,0.642 20.355,0 19.567,0 L19.563,0 L19.563,0 L19.563,0 L19.563,0 L19.563,0 Z M5.526,4.555 L2.452,4.555 L2.452,18.542 L16.438,18.542 L16.438,15.474 L18.89,15.474 L18.89,19.768 C18.89,20.445 18.34,20.994 17.664,20.994 L1.226,20.994 C0.549,20.994 0,20.444 0,19.768 L0,3.328 C0,2.652 0.55,2.103 1.226,2.103 L5.526,2.103 L5.526,4.555 L5.526,4.555 L5.526,4.555 L5.526,4.555 L5.526,4.555 Z"/>
</svg>
