<svg xmlns="http://www.w3.org/2000/svg" viewBox="0 0 25 25">
  <path d="M24.9061523 1.61079102c-.1654296-.35664063-.5229003-.58481446-.9160644-.58481446H1.00986328c-.39311523 0-.75058594.228125-.91606445.58481446-.16547852.35668945-.10888672.7769043.1449707 1.07714843l8.9533203 10.58730465v7.1447266c0 .3824707.2161133.7321777.55825197.9032715l4.5960449 2.297998c.1425293.0712891.2972656.1065918.4516113.1065918.184668 0 .36875-.0505859.5309571-.15083.2977051-.1840333.4789551-.5090821.4789551-.8590821v-9.4426758l8.9533203-10.58730465c.2538574-.30024414.3103515-.7205078.1449218-1.07714843zM14.0268555 12.2533691c-.1541504.1823243-.2387207.4133789-.2387207.6520997v8.1785156l-2.5763184-1.2881348v-6.890332c0-.2387696-.0846191-.4697754-.2387695-.6520996L3.1864746 3.04570313h18.6270508l-7.7866699 9.20766597z"/>
</svg>
