<svg xmlns="http://www.w3.org/2000/svg" viewBox="0 0 26 25">
  <path fill-rule="evenodd" d="M3.0006259 24.1692977H3V.81095334h.00159562C3.0289486.35849257 3.40455634 0 3.86389452 0s.83494594.35849257.8622989.81095334h.00159563S6.4555781 2.5387424 9.04726165 2.5387424 14.2306288.37900608 16.8223124.37900608c2.5916835 0 5.1833671 1.72778905 5.1833671 1.72778905V15.4971602s-2.5916836-1.727789-5.1833671-1.727789c-2.5916836 0-5.1833672 2.5916836-7.77505074 2.5916836-2.59168357 0-4.3194726-1.7277891-4.3194726-1.7277891v9.536032h-.00062592C4.7097201 24.6310313 4.32989594 25 3.86389452 25c-.46600142 0-.84582558-.3689687-.8632686-.8307023zM4.72778906 2.97068965v9.07089245s1.72778904 2.5916836 4.3194726 2.5916836c1.72778905 0 5.18336715-2.5916836 7.77505075-2.5916836 2.5916835 0 3.4555781.8638946 3.4555781.8638946V2.97068965s-1.7277891-.86389452-3.4555781-.86389452c-1.7277891 0-5.1833672 2.1597363-7.77505072 2.1597363-2.59168357 0-4.3194726-1.29584178-4.3194726-1.29584178z"/>
</svg>
