<svg xmlns="http://www.w3.org/2000/svg" viewBox="0 0 25 25">
  <path fill-rule="evenodd" d="M12.5 0C19.404 0 25 5.597 25 12.5S19.404 25 12.5 25 0 19.404 0 12.5 5.596 0 12.5 0zm0 8.5793457c-1.0626358 0-1.9240723.8614365-1.9240723 1.9240723v8.392334c0 1.0626357.8614365 1.9240722 1.9240723 1.9240722 1.0626358 0 1.9240723-.8614365 1.9240723-1.9240722v-8.392334c0-1.0626358-.8614365-1.9240723-1.9240723-1.9240723zm.0009277-1.2663575c1.0631481 0 1.9249999-.86185185 1.9249999-1.92499997 0-1.0631481-.8618518-1.92499995-1.9249999-1.92499995s-1.925.86185184-1.925 1.92499995c0 1.06314812.8618519 1.92499996 1.925 1.92499996z"/>
</svg>
