<svg xmlns="http://www.w3.org/2000/svg" viewBox="0 0 25 25">
  <path fill-rule="evenodd" d="M19.0367252 10.972133c1.5496587.7697973 2.61469 2.3687499 2.61469 4.2164538v5.1062123C21.6514152 22.8934098 19.544825 25 16.9462143 25H8.05378566c-2.5986107 0-4.7052009-2.1065902-4.7052009-4.7052009v-5.1062123c0-1.8477039 1.0650313-3.4466565 2.61469007-4.2164538V6.45015762C5.96327483 2.98586435 8.45089838 0 12.6225313 0c4.1716329 0 6.4141939 3.04044646 6.4141939 6.45015762V10.972133zm-1.7109822-.4834603V6.45015762c0-2.7890244-1.7788098-4.73917548-4.7032117-4.73917548-3.01118908 0-4.94827432 1.99831844-4.94827432 4.73917548v4.03851508H17.325743zM12.5 19.2967262c1.5749156 0 2.8516369-1.2767213 2.8516369-2.8516369S14.0749156 13.5934524 12.5 13.5934524s-2.8516369 1.2767213-2.8516369 2.8516369S10.9250844 19.2967262 12.5 19.2967262z"/>
</svg>
