<svg xmlns="http://www.w3.org/2000/svg" viewBox="0 0 25 25">
  <path d="M22.368 1H2.398C1.078 1 0 2.078 0 3.397c0 1.318 1.078 2.396 2.397 2.396h19.97c1.32 0 2.398-1.078 2.398-2.396 0-1.32-1.078-2.397-2.397-2.397zm0 8.788H2.398C1.078 9.788 0 10.866 0 12.184c0 1.318 1.078 2.397 2.397 2.397h19.97c1.32 0 2.398-1.076 2.398-2.394S23.687 9.79 22.368 9.79zm0 8.787H2.398c-1.32 0-2.398 1.08-2.398 2.397 0 1.318 1.078 2.396 2.397 2.396h19.97c1.32 0 2.398-1.078 2.398-2.396 0-1.318-1.078-2.397-2.397-2.397z"/>
</svg>
