<svg xmlns="http://www.w3.org/2000/svg" viewBox="0 0 25 25">
  <path fill-rule="evenodd" d="M15.9875091 3.8398759v7.5953617L9.77124798 5.21793258l2.85827842-3.03512132c1.8469278-1.4163153 3.3579827-.67073886 3.3579827 1.65706463zM.49895388 11.5683403c0-2.26528336 1.55098646-4.12894452 3.47852376-4.22729716L15.9875465 19.3529421v1.5592719c0 2.3278035-1.5110549 3.07338-3.3579827 1.6570647l-4.85299038-5.1533423H4.13776365c-2.00142934 0-3.63880977-1.9045326-3.63880977-4.2321494v-1.6154467zM24.0083803 22.0280332c.383311.3831969.383311 1.0048433 0 1.3880403-.1916555.1918661-.442735.28771-.6939928.28771-.2512579 0-.5023374-.0958439-.6939929-.28771L1.5791532 2.37147713c-.38331103-.3833754-.38331103-1.00484334 0-1.38821873.38331102-.3833754 1.00449617-.3833754 1.38798565 0L24.0083803 22.0280332zm-5.3389073-9.6519509c0-1.2614146-.4549212-2.4797182-1.2807954-3.43039816-.3716993-.4279366-.3263565-1.07628018.1015083-1.44822858.4280513-.37176177 1.0760994-.32603806 1.4477988.10171193 1.1503647 1.32430796 1.7840449 3.020751 1.7840449 4.7769148 0 1.0902772-.2367904 2.1413627-.6911518 3.1030537l-1.5869995-1.587266c.1464779-.4859778.2255947-.9941641.2255947-1.5157877zm3.9401064 0c0-2.56500693-1.0848695-5.03072807-2.976767-6.76505644-.4177885-.38295942-.4461511-1.03223612-.063256-1.4502815.3830817-.41785872 1.032436-.44603946 1.450038-.06308005 2.3149107 2.12214014 3.6425417 5.13953185 3.6425417 8.278418 0 2.133711-.615767 4.2155396-1.7383289 5.9963382l-1.4965004-1.4965651c.7657902-1.3627532 1.1822726-2.9138135 1.1822726-4.4997731z"/>
</svg>
