<svg xmlns="http://www.w3.org/2000/svg" viewBox="0 0 25 25">
  <path d="M12.29 6.58c1.816 0 3.29-1.474 3.29-3.29 0-1.817-1.474-3.29-3.29-3.29C10.472 0 9 1.473 9 3.29c0 1.816 1.473 3.29 3.29 3.29zm-.001 8.998c1.81646454 0 3.289-1.4725355 3.289-3.289 0-1.8164645-1.47253546-3.289-3.289-3.289C10.47253546 9 9 10.4725355 9 12.289c0 1.8164645 1.47253546 3.289 3.289 3.289zm0 9c1.81646454 0 3.289-1.4725355 3.289-3.289 0-1.8164645-1.47253546-3.289-3.289-3.289C10.47253546 18 9 19.4725355 9 21.289c0 1.8164645 1.47253546 3.289 3.289 3.289z"/>
</svg>
