<svg xmlns="http://www.w3.org/2000/svg" viewBox="0 0 25 25">
  <path fill-rule="evenodd" d="M16.9886473 8.3007488H1.20772947C.54082127 8.3007488 0 7.7600483 0 7.0930193s.54082126-1.20772946 1.20772947-1.20772946H16.9886473c.6669083 0 1.2077295.54070048 1.2077295 1.20772946 0 .667029-.5408212 1.20772947-1.2077295 1.20772947zm-2.8136352 4.6669807H4.0213889c-.667029 0-1.20772948-.5407005-1.20772948-1.2077295 0-.667029.54070048-1.2077295 1.20772947-1.2077295h10.1536232c.6669082 0 1.2077294.5407005 1.2077294 1.2077295 0 .667029-.5408212 1.2077295-1.2077294 1.2077295zm-1.9279952 4.667029H5.9493116c-.66690822 0-1.20772947-.5408213-1.20772947-1.2077295 0-.667029.54082125-1.2077295 1.20772946-1.2077295h6.2977053c.6669082 0 1.2077295.5407005 1.2077295 1.2077295 0 .6669082-.5408213 1.2077295-1.2077295 1.2077295zm12.5277174-2.5424276c.2358696.2358696.2358696.6182367 0 .8539855l-3.6629227 3.662802c-.0281401.0282608-.0594203.0536231-.0928744.0759661-.0141304.0094203-.0295894.0159421-.0443237.0240339-.0195652.0108695-.0385265.0227053-.0594203.0314009-.0195652.007971-.0400966.0126812-.0602657.0185991-.017512.0051932-.0342995.0119565-.0525362.0155797-.0388889.0077294-.0785024.0119565-.1181159.0119565-.0396136 0-.0792271-.0042271-.1182368-.0119565-.0181159-.0036232-.0350241-.0103865-.0524154-.0155797-.0201691-.0059179-.0407005-.0106281-.0602657-.0185991-.0208937-.0086956-.0398551-.0205314-.0594203-.0314009-.0148551-.0080918-.0301932-.0146136-.0444444-.0240339-.0333334-.022343-.0646136-.0477053-.0927537-.0759661l-3.6628019-3.662802c-.2358696-.2357488-.2358696-.6181159 0-.8539855.235628-.2357488.6182367-.2357488.8538647 0l2.6326087 2.6326087V5.81721014c0-.3334541.2702899-.60386473.6038648-.60386473.3335748 0 .6038647.27041065.6038647.60386475V17.7249396l2.6327295-2.6326087c.235628-.2357488.6182367-.2357488.8538647 0z"/>
</svg>
