<svg xmlns="http://www.w3.org/2000/svg" viewBox="0 0 24 24">
  <g fill-rule="evenodd">
    <path d="M19.9359431 20.6328678c0 .8688225-.6956332 1.5735379-1.5415089 1.5735379H5.33510312c-.85163092 0-1.5415088-.6988594-1.5415088-1.5735379V3.3671322c0-.86882248.69563316-1.5735379 1.5415088-1.5735379h9.63545398l4.965386 4.63029736V20.6328678zm1.7935943 0V5.64401466L15.6770726 0H5.33510312C3.49340744 0 2 1.51290548 2 3.3671322v17.2657356C2 22.492965 3.48766707 24 5.33510312 24H18.3944342c1.8416957 0 3.3351032-1.5129055 3.3351032-3.3671322z"/>
    <path d="M7.79585883 10.6493435c-.14843647-.1202212-.3563671-.180331-.62379808-.180331h-1.0562245V12.06623h1.0562245c.267431 0 .4753616-.0650166.62379808-.1950519.14843647-.1300352.2226536-.3361257.2226536-.6182777s-.07421713-.4833356-.2226536-.6035569zm.85933247 1.9541993c-.3238614.2649776-.78633834.3974643-1.3874447.3974643H6.11583625v1.9505191H4.9896875V9.526875h2.36270426c.54467597 0 .97893815.13984714 1.30279954.41954562.3238614.27969848.48578966.71273388.48578966 1.29911928 0 .6403623-.16192827 1.0930254-.48578966 1.3580029zm2.43630875-2.1345303v3.5403762h1.04518385c.534862 0 .9077877-.2637468 1.1187883-.7912483.1153143-.2895125.1729705-.6342234.1729705-1.0341432 0-.5520364-.0864844-.9758714-.2594558-1.2715176-.1729714-.2956462-.517069-.4434671-1.032303-.4434671h-1.04518385zm2.07564675-.8243703c.3802918.12512826.6882008.35452663.9237364.688202.1889191.2698845.3177257.5618461.3864236.8758935.0686978.3140474.1030463.6133693.1030463.8979748 0 .7213277-.1447541 1.3322389-.4342666 1.8327519-.3925592.6747112-.9985635 1.0120618-1.818031 1.0120618H9.99111286V9.526875h2.33694264c.3361289.004907.6158232.04416233.8390913.1177672zm2.2670184-.11040675H19.28v.95317815h-2.7196861v1.2475962h2.3811054v.9421375h-2.3811054v2.2743789h-1.1261487V9.53423545z"/>
  </g>
</svg>
