<svg xmlns="http://www.w3.org/2000/svg" viewBox="0 0 25 25">
  <path d="M24.507 9.86c-.03-.152-.137-.28-.282-.337-1.274-.508-2.625-.765-4.015-.765-2.167 0-3.84.62-4.485.9l-6.89-5.862c.242-2.114-.9-3.56-.95-3.624C7.805.07 7.682.008 7.55 0c-.13-.003-.26.042-.352.135L.136 7.197c-.094.093-.143.222-.135.355.01.13.074.254.177.336 1.01.8 2.242.97 3.098.97.19 0 .353-.01.478-.02l5.89 6.924c-.4 1.032-1.63 4.754-.14 8.49.056.144.182.25.335.28.03.007.063.01.094.01.12 0 .24-.047.327-.135L17 17.662l6.284 6.282c.09.09.208.136.327.136.12 0 .24-.046.33-.136.18-.18.18-.474 0-.655l-6.282-6.285 6.725-6.726c.112-.11.16-.268.127-.42z"/>
</svg>
