<svg xmlns="http://www.w3.org/2000/svg" viewBox="0 0 25 25">
  <path d="M15.5001022.50053488c.5499869 0 .9999816.4479812.9999816.99998165V7.086469L22.7920834.7925187c.3859976-.39002493 1.0240199-.39002493 1.4139819 0 .3859976.39002493.3859976 1.02401997 0 1.41398198l-6.2919995 6.2939503h5.5859525c.5499868 0 .9999817.4479812.9999817.99998158 0 .55200044-.4499949.99998174-.9999817.99998174h-7.9999791l-.3819701-.0780301c-.2420194-.1020056-.4399894-.2960112-.5399813-.53998135l-.0780301-.3819703v-7.999916c.0000628-.55200046.4500577-.99998166 1.0000445-.99998166zM9.4998978 14.4999317l.38197014.0780303.31602216.2099892.2239592.3320686.0780301.3759921v8.0038806c0 .5499867-.4479813.9999816-.9999816.9999816-.5520005 0-.99998172-.4499949-.99998172-.9999816v-5.5859524l-6.29199954 6.2919994c-.39002493.3859976-1.02401997.3859976-1.41398197 0-.39002494-.390025-.39002494-1.0279844 0-1.413982L7.0859341 16.499958H1.49998166C.9479812 16.499958.5 16.0499631.5 15.4999763c-.00006293-.5500497.44791828-1.0000446.9999187-1.0000446h7.9999791z"/>
</svg>
