<svg xmlns="http://www.w3.org/2000/svg" viewBox="0 0 25 25">
  <path d="M24.06 10.668l-2.475-.413c-.18-.735-.442-1.437-.783-2.093L22.386 6.2c.336-.416.32-1.013-.034-1.414l-.984-1.107c-.356-.4-.948-.49-1.4-.2l-2.115 1.33c-.93-.65-1.984-1.13-3.12-1.41L14.317.91C14.23.387 13.775 0 13.24 0h-1.48c-.534 0-.99.387-1.076.913L10.266 3.4c-.94.23-1.822.603-2.626 1.092L5.628 3.056c-.434-.31-1.03-.26-1.408.117L3.173 4.22c-.378.38-.426.975-.116 1.408l1.44 2.016c-.485.798-.853 1.675-1.083 2.606l-2.5.418C.386 10.755 0 11.21 0 11.746v1.48c0 .536.387.992.913 1.08l2.5.416c.19.767.465 1.5.83 2.178l-1.577 1.953c-.336.414-.322 1.012.033 1.412l.98 1.107c.353.4.95.484 1.4.2l2.142-1.348c.908.62 1.935 1.077 3.038 1.348l.417 2.487c.085.52.542.91 1.076.91h1.483c.534 0 .99-.39 1.077-.917l.415-2.488c.927-.228 1.797-.593 2.594-1.074l2.096 1.497c.433.31 1.03.26 1.407-.118l1.05-1.05c.378-.377.43-.97.116-1.407l-1.49-2.09c.488-.8.857-1.68 1.086-2.615l2.474-.415c.526-.086.912-.542.912-1.077v-1.48c0-.537-.387-.993-.914-1.08zm-11.534 6.5c-2.586 0-4.683-2.097-4.683-4.682 0-2.585 2.097-4.682 4.683-4.682 2.585 0 4.682 2.097 4.682 4.682 0 2.585-2.097 4.683-4.682 4.683z"/>
</svg>
