<svg xmlns="http://www.w3.org/2000/svg" viewBox="0 0 25 25">
  <path fill-rule="evenodd" d="M19.75 17.6706827c-.95 0-1.8.3765061-2.45.9663655l-8.9125-5.2083333c.0625-.2886547.1125-.5773093.1125-.8785141 0-.3012048-.05-.5898594-.1125-.8785141L17.2 6.51355422c.675.62751004 1.5625 1.01656626 2.55 1.01656626 2.075 0 3.75-1.6817269 3.75-3.76506024C23.5 1.6817269 21.825 0 19.75 0S16 1.6817269 16 3.76506024c0 .30120482.05.58985944.1125.87851406L7.3 9.80170683c-.675-.62751004-1.5625-1.01656627-2.55-1.01656627-2.075 0-3.75 1.68172694-3.75 3.76506024s1.675 3.7650602 3.75 3.7650602c.9875 0 1.875-.3890562 2.55-1.0165662l8.9 5.2208835c-.0625.2635542-.1.5396586-.1.8157631C16.1 23.3559237 17.7375 25 19.75 25s3.65-1.6440763 3.65-3.6646586c0-2.0205824-1.6375-3.6646587-3.65-3.6646587z"/>
</svg>
