<svg xmlns="http://www.w3.org/2000/svg" viewBox="0 0 25 25">
  <path fill-rule="evenodd" d="M4.375 6.25c-1.035 0-1.87375-.84125-1.87375-1.875C2.50125 3.34 3.34 2.5 4.375 2.5c1.035 0 1.875.84 1.875 1.875 0 1.03375-.84 1.875-1.875 1.875M11.24875 0H0v11.25c0 .69.28125 1.31375.73375 1.76875l11.25375 11.2475c.45125.4525 1.07625.73375 1.7675.73375.69125 0 1.31625-.28 1.7675-.73125L24.265 15.525c.45375-.4525.735-1.08.735-1.77 0-.69125-.27875-1.3175-.73375-1.7675L13.01875.73125C12.56375.28125 11.94 0 11.24875 0"/>
</svg>
