<svg xmlns="http://www.w3.org/2000/svg" viewBox="0 0 25 25">
  <path fill-rule="evenodd" d="M12.5 25C5.59644063 25 0 19.4035594 0 12.5 0 5.59644063 5.59644063 0 12.5 0 19.4035594 0 25 5.59644063 25 12.5 25 19.4035594 19.4035594 25 12.5 25zm0-1.5625c6.0406145 0 10.9375-4.8968855 10.9375-10.9375 0-6.04061445-4.8968855-10.9375-10.9375-10.9375-6.04061445 0-10.9375 4.89688555-10.9375 10.9375 0 6.0406145 4.89688555 10.9375 10.9375 10.9375zm5.479385-11.71875s.767197-.1099943.767197.7455697c0 .8555641-.767197.8169303-.767197.8169303h-6.264053V3.75123857S11.7512981 3.125 12.514446 3.125c.7631478 0 .763386.62623857.763386.62623857V11.71875h4.701553z"/>
</svg>
