<svg xmlns="http://www.w3.org/2000/svg" viewBox="0 0 25 25">
  <path fill-rule="evenodd" d="M19.0520481 7.57766998c1.1855769 1.36461538 1.8384615 3.11269232 1.8384615 4.92230772 0 1.6655769-.5342308 3.2432692-1.5448077 4.5625-.2082692.2717307-.5225.4146154-.8403846.4146154-.2244231 0-.4505769-.0713462-.6425-.2182693-.4636538-.3551923-.5515385-1.0192307-.1963461-1.4828846.7251923-.9467308 1.1086538-2.0794231 1.1086538-3.2759615 0-1.2998077-.4686538-2.55519234-1.32-3.53480772-.3830769-.44115385-.3361538-1.10903847.1048077-1.4921154.4411538-.38326922 1.1092308-.33615383 1.4921154.1046154zm2.1453461-3.60801923c2.3857693 2.18673076 3.7540385 5.29596153 3.7540385 8.53038465 0 3.196923-1.3417308 6.2815384-3.6809615 8.4626923-.2038462.1901923-.4628847.2842307-.7211539.2842307-.2830769 0-.5655769-.1130769-.7738461-.3363461-.3982693-.4273077-.375-1.0965385.0523076-1.495 1.9117308-1.7825 3.0082693-4.3032692 3.0082693-6.9155769 0-2.64307696-1.1182693-5.1838462-3.0680769-6.97096158-.430577-.39461538-.4596154-1.06365384-.065-1.49442307.395-.43057693 1.0638461-.4596154 1.494423-.065zm-8.6470961-1.97323077c1.9034615-1.45942308 3.4609615-.69096154 3.4609615 1.7075V21.2960354c0 2.3986538-1.5575 3.166923-3.4609615 1.7075l-5.00153848-5.3101923h-3.75c-2.0626923 0-3.7501923-1.9625-3.7501923-4.3609616v-1.6646154c0-2.39865382 1.6875-4.36115382 3.7501923-4.36115382h3.75l5.00153848-5.3101923z"/>
</svg>
